<svg width="20" height="19" viewBox="0 0 20 19" fill="none" xmlns="http://www.w3.org/2000/svg">
<path d="M20 11.0833V7.91667L17.2183 7.58654C17.0573 7.03422 16.8261 6.50254 16.53 6.00321L18.25 3.90213L15.8925 1.6625L13.6817 3.2965C13.1561 3.01518 12.5964 2.7956 12.015 2.64258L11.6667 0H8.33333L7.98583 2.64258C7.40444 2.7956 6.84478 3.01518 6.31917 3.2965L4.1075 1.6625L1.75 3.90213L3.47 6.00242C3.17388 6.50175 2.94274 7.03343 2.78167 7.58575L0 7.91667V11.0833L2.78167 11.4135C2.94274 11.9658 3.17388 12.4975 3.47 12.9968L1.75 15.0979L4.1075 17.3375L6.31833 15.7043C6.84395 15.9856 7.40361 16.2052 7.985 16.3582L8.33333 19H11.6667L12.0142 16.3574C12.5956 16.2044 13.1552 15.9848 13.6808 15.7035L15.8925 17.3375L18.25 15.0979L16.5308 12.9976C16.827 12.4982 17.0581 11.9666 17.2192 11.4143L20 11.0833ZM10 12.6667C9.34073 12.6667 8.69626 12.4809 8.1481 12.133C7.59994 11.785 7.17269 11.2905 6.9204 10.7118C6.66811 10.1332 6.6021 9.49649 6.73072 8.88221C6.85933 8.26794 7.1768 7.70369 7.64298 7.26083C8.10915 6.81796 8.7031 6.51637 9.3497 6.39418C9.9963 6.27199 10.6665 6.3347 11.2756 6.57438C11.8847 6.81406 12.4053 7.21994 12.7716 7.74069C13.1378 8.26145 13.3333 8.87369 13.3333 9.5C13.3333 10.3399 12.9821 11.1453 12.357 11.7392C11.7319 12.333 10.8841 12.6667 10 12.6667Z" fill="white"/>
</svg>
