<svg width="19" height="18" viewBox="0 0 19 18" fill="none" xmlns="http://www.w3.org/2000/svg">
<path d="M6.3169 6.68857C6.35723 6.68857 6.3968 6.68401 6.43714 6.68248C6.40479 6.45532 6.38196 6.22549 6.38196 5.9892C6.38196 4.04937 7.52349 2.38046 9.1688 1.6046C8.58092 0.643439 7.52539 0 6.3169 0C4.46991 0 2.97261 1.4973 2.97261 3.34429C2.97261 5.19127 4.46953 6.68857 6.3169 6.68857Z" fill="white"/>
<path d="M11.2158 9.70415C13.2675 9.70415 14.9307 8.04094 14.9307 5.98925C14.9307 3.93757 13.2675 2.27435 11.2158 2.27435C9.16416 2.27435 7.50094 3.93757 7.50094 5.98925C7.50094 8.04094 9.16416 9.70415 11.2158 9.70415Z" fill="white"/>
<path d="M14.4566 9.65167C13.5928 10.4169 12.4601 10.8849 11.2154 10.8849C9.97648 10.8849 8.84865 10.4211 7.98604 9.66271C5.7361 10.8906 4.19884 13.3536 4.19884 16.1941C4.19884 16.6416 4.2388 17.078 4.31186 17.5031H18.1509C18.2244 17.0784 18.2643 16.6416 18.2643 16.1945C18.2643 13.3453 16.7183 10.8758 14.4566 9.65167Z" fill="white"/>
<path d="M7.2913 8.82959C7.05234 8.49246 6.85257 8.12603 6.70455 7.73335C6.5767 7.74438 6.44733 7.75161 6.31643 7.75161C5.20078 7.75161 4.18559 7.3342 3.40897 6.65118C1.38391 7.75656 0 9.97416 0 12.5316C0 12.9341 0.0361483 13.3276 0.101596 13.7104H3.54976C4.04708 11.5993 5.42985 9.83147 7.2913 8.82959Z" fill="white"/>
</svg>
