<svg width="15" height="15" viewBox="0 0 15 15" fill="none" xmlns="http://www.w3.org/2000/svg">
<path d="M0.548645 11.8643C0.549547 12.6957 0.849146 13.4928 1.38172 14.0806C1.9143 14.6685 2.63637 14.9992 3.38955 15.0002H11.3441C12.0973 14.9992 12.8193 14.6685 13.3519 14.0806C13.8845 13.4928 14.1841 12.6957 14.185 11.8643V6.21973H0.548645V11.8643ZM10.2077 9.04203C10.3763 9.04203 10.5411 9.0972 10.6812 9.20057C10.8214 9.30395 10.9306 9.45087 10.9951 9.62278C11.0596 9.79468 11.0765 9.98384 11.0436 10.1663C11.0107 10.3488 10.9296 10.5164 10.8104 10.648C10.6912 10.7796 10.5393 10.8692 10.374 10.9055C10.2087 10.9418 10.0373 10.9232 9.88158 10.8519C9.72585 10.7807 9.59274 10.6602 9.49909 10.5055C9.40544 10.3507 9.35546 10.1689 9.35546 9.98279C9.35546 9.73329 9.44525 9.494 9.60508 9.31757C9.76492 9.14114 9.98169 9.04203 10.2077 9.04203ZM7.36682 9.04203C7.53539 9.04203 7.70016 9.0972 7.84032 9.20057C7.98048 9.30395 8.08971 9.45087 8.15422 9.62278C8.21873 9.79468 8.2356 9.98384 8.20272 10.1663C8.16983 10.3488 8.08866 10.5164 7.96947 10.648C7.85028 10.7796 7.69842 10.8692 7.53309 10.9055C7.36777 10.9418 7.1964 10.9232 7.04067 10.8519C6.88494 10.7807 6.75183 10.6602 6.65818 10.5055C6.56454 10.3507 6.51455 10.1689 6.51455 9.98279C6.51455 9.73329 6.60434 9.494 6.76418 9.31757C6.92401 9.14114 7.14079 9.04203 7.36682 9.04203ZM4.52592 9.04203C4.69448 9.04203 4.85926 9.0972 4.99941 9.20057C5.13957 9.30395 5.24881 9.45087 5.31331 9.62278C5.37782 9.79468 5.3947 9.98384 5.36181 10.1663C5.32893 10.3488 5.24776 10.5164 5.12856 10.648C5.00937 10.7796 4.85751 10.8692 4.69219 10.9055C4.52686 10.9418 4.3555 10.9232 4.19977 10.8519C4.04403 10.7807 3.91093 10.6602 3.81728 10.5055C3.72363 10.3507 3.67364 10.1689 3.67364 9.98279C3.67364 9.73329 3.76344 9.494 3.92327 9.31757C4.0831 9.14114 4.29988 9.04203 4.52592 9.04203Z" fill="#202B47" fill-opacity="0.7"/>
<path d="M11.3443 1.23476H10.7761V0.617378C10.7761 0.453639 10.7162 0.296607 10.6097 0.180826C10.5031 0.065045 10.3586 0 10.2079 0C10.0572 0 9.9127 0.065045 9.80615 0.180826C9.69959 0.296607 9.63973 0.453639 9.63973 0.617378V1.23476H5.09428V0.617378C5.09428 0.453639 5.03442 0.296607 4.92786 0.180826C4.82131 0.065045 4.67679 0 4.5261 0C4.37541 0 4.23089 0.065045 4.12433 0.180826C4.01778 0.296607 3.95792 0.453639 3.95792 0.617378V1.23476H3.38974C2.63656 1.23574 1.91449 1.56128 1.38191 2.13997C0.849329 2.71866 0.54973 3.50325 0.548828 4.32165L0.548828 4.93902H14.1852V4.32165C14.1843 3.50325 13.8847 2.71866 13.3521 2.13997C12.8195 1.56128 12.0975 1.23574 11.3443 1.23476Z" fill="#202B47" fill-opacity="0.7"/>
</svg>
