<svg width="38" height="38" viewBox="0 0 38 38" fill="none" xmlns="http://www.w3.org/2000/svg">
<circle cx="19" cy="19" r="19" fill="#202B47"/>
<path d="M20.2306 22.513L18.0557 24.6879C17.4243 25.3025 16.5762 25.6438 15.6951 25.6379C14.8139 25.632 13.9705 25.2794 13.3473 24.6564C12.7242 24.0334 12.3714 23.1901 12.3652 22.3089C12.359 21.4278 12.7001 20.5796 13.3145 19.948L15.4894 17.7711C15.6144 17.646 15.6846 17.4763 15.6846 17.2995C15.6845 17.1226 15.6142 16.953 15.4891 16.828C15.364 16.703 15.1943 16.6328 15.0174 16.6328C14.8406 16.6329 14.671 16.7032 14.546 16.8283L12.3717 19.0052C11.4931 19.8843 10.9997 21.0763 11 22.3191C11.0003 23.562 11.4943 24.7538 12.3734 25.6324C13.2524 26.511 14.4444 27.0044 15.6873 27.0041C16.9301 27.0037 18.1219 26.5097 19.0005 25.6307L21.1754 23.4558C21.2969 23.33 21.3641 23.1616 21.3626 22.9868C21.361 22.812 21.2909 22.6447 21.1673 22.5211C21.0437 22.3975 20.8765 22.3274 20.7016 22.3259C20.5268 22.3243 20.3584 22.3915 20.2326 22.513H20.2306Z" fill="white"/>
<path d="M25.6307 12.3742C25.1968 11.9373 24.6806 11.5909 24.1119 11.3551C23.5432 11.1192 22.9333 10.9985 22.3176 11C21.7023 10.9984 21.0927 11.1187 20.5241 11.3542C19.9556 11.5896 19.4393 11.9354 19.0052 12.3715L16.827 14.5471C16.7019 14.6721 16.6315 14.8417 16.6315 15.0186C16.6314 15.1955 16.7016 15.3651 16.8266 15.4902C16.9516 15.6153 17.1212 15.6857 17.2981 15.6857C17.475 15.6858 17.6446 15.6156 17.7697 15.4906L19.9467 13.3156C20.2571 13.0034 20.6263 12.7558 21.0331 12.5872C21.4398 12.4186 21.876 12.3324 22.3163 12.3335C22.9792 12.3337 23.6272 12.5305 24.1783 12.8989C24.7294 13.2673 25.1589 13.7909 25.4126 14.4034C25.6662 15.0159 25.7325 15.6898 25.6032 16.34C25.4738 16.9902 25.1546 17.5874 24.6859 18.0562L22.511 20.2311C22.3859 20.3562 22.3156 20.5259 22.3156 20.7029C22.3156 20.8798 22.3859 21.0495 22.511 21.1746C22.6361 21.2997 22.8058 21.37 22.9827 21.37C23.1596 21.37 23.3293 21.2997 23.4544 21.1746L25.6294 19.001C26.5068 18.1216 26.9997 16.9301 27 15.6879C27.0002 14.4456 26.5078 13.2539 25.6307 12.3742Z" fill="white"/>
<path d="M20.5294 16.529L16.5289 20.5294C16.4652 20.5909 16.4144 20.6645 16.3794 20.7459C16.3445 20.8272 16.3261 20.9147 16.3253 21.0032C16.3246 21.0918 16.3414 21.1796 16.375 21.2615C16.4085 21.3434 16.458 21.4179 16.5206 21.4805C16.5832 21.5431 16.6576 21.5926 16.7396 21.6261C16.8215 21.6596 16.9093 21.6765 16.9979 21.6757C17.0864 21.675 17.1739 21.6566 17.2552 21.6216C17.3366 21.5867 17.4101 21.5359 17.4716 21.4722L21.4721 17.4717C21.5936 17.346 21.6608 17.1776 21.6593 17.0028C21.6578 16.8279 21.5876 16.6607 21.464 16.5371C21.3404 16.4135 21.1732 16.3433 20.9983 16.3418C20.8235 16.3403 20.6551 16.4075 20.5294 16.529Z" fill="white"/>
</svg>
